<svg width="28" height="28" viewBox="0 0 28 28" fill="none" xmlns="http://www.w3.org/2000/svg">
<path d="M7.33342 16.6665H10.0001C10.3537 16.6665 10.6928 16.526 10.9429 16.276C11.1929 16.0259 11.3334 15.6868 11.3334 15.3332C11.3334 14.9795 11.1929 14.6404 10.9429 14.3904C10.6928 14.1403 10.3537 13.9998 10.0001 13.9998H7.33342C6.97979 13.9998 6.64065 14.1403 6.39061 14.3904C6.14056 14.6404 6.00008 14.9795 6.00008 15.3332C6.00008 15.6868 6.14056 16.0259 6.39061 16.276C6.64065 16.526 6.97979 16.6665 7.33342 16.6665ZM15.3334 19.3332H7.33342C6.97979 19.3332 6.64065 19.4736 6.39061 19.7237C6.14056 19.9737 6.00008 20.3129 6.00008 20.6665C6.00008 21.0201 6.14056 21.3593 6.39061 21.6093C6.64065 21.8594 6.97979 21.9998 7.33342 21.9998H15.3334C15.687 21.9998 16.0262 21.8594 16.2762 21.6093C16.5263 21.3593 16.6667 21.0201 16.6667 20.6665C16.6667 20.3129 16.5263 19.9737 16.2762 19.7237C16.0262 19.4736 15.687 19.3332 15.3334 19.3332ZM23.3334 0.666504H4.66675C3.60588 0.666504 2.58847 1.08793 1.83832 1.83808C1.08818 2.58822 0.666748 3.60564 0.666748 4.6665V23.3332C0.666748 24.394 1.08818 25.4115 1.83832 26.1616C2.58847 26.9117 3.60588 27.3332 4.66675 27.3332H23.3334C24.3943 27.3332 25.4117 26.9117 26.1618 26.1616C26.912 25.4115 27.3334 24.394 27.3334 23.3332V4.6665C27.3334 3.60564 26.912 2.58822 26.1618 1.83808C25.4117 1.08793 24.3943 0.666504 23.3334 0.666504ZM16.6667 3.33317V7.71984L14.6534 6.59984C14.4507 6.48281 14.2208 6.4212 13.9867 6.4212C13.7527 6.4212 13.5228 6.48281 13.3201 6.59984L11.3334 7.71984V3.33317H16.6667ZM24.6667 23.3332C24.6667 23.6868 24.5263 24.0259 24.2762 24.276C24.0262 24.526 23.687 24.6665 23.3334 24.6665H4.66675C4.31313 24.6665 3.97399 24.526 3.72394 24.276C3.47389 24.0259 3.33341 23.6868 3.33341 23.3332V4.6665C3.33341 4.31288 3.47389 3.97374 3.72394 3.7237C3.97399 3.47365 4.31313 3.33317 4.66675 3.33317H8.66675V9.99984C8.66815 10.2325 8.73043 10.4608 8.84738 10.662C8.96433 10.8631 9.1319 11.0302 9.33342 11.1465C9.53611 11.2635 9.76603 11.3251 10.0001 11.3251C10.2341 11.3251 10.4641 11.2635 10.6667 11.1465L14.0001 9.29317L17.3467 11.1598C17.546 11.2728 17.771 11.3325 18.0001 11.3332C18.3537 11.3332 18.6928 11.1927 18.9429 10.9426C19.1929 10.6926 19.3334 10.3535 19.3334 9.99984V3.33317H23.3334C23.687 3.33317 24.0262 3.47365 24.2762 3.7237C24.5263 3.97374 24.6667 4.31288 24.6667 4.6665V23.3332Z" fill="white"/>
</svg>
