<svg width="28" height="28" viewBox="0 0 28 28" fill="none" xmlns="http://www.w3.org/2000/svg">
<path d="M18.9467 14.9465C20.2539 13.9181 21.208 12.5077 21.6763 10.9118C22.1446 9.31579 22.1039 7.61353 21.5597 6.0418C21.0155 4.47007 19.995 3.10703 18.6401 2.14231C17.2852 1.1776 15.6633 0.65918 14 0.65918C12.3367 0.65918 10.7148 1.1776 9.3599 2.14231C8.00499 3.10703 6.98446 4.47007 6.44028 6.0418C5.8961 7.61353 5.85535 9.31579 6.32368 10.9118C6.79201 12.5077 7.74614 13.9181 9.05333 14.9465C6.81343 15.8439 4.85905 17.3323 3.39852 19.2531C1.93799 21.1738 1.02608 23.4549 0.759996 25.8532C0.740735 26.0283 0.756151 26.2054 0.805363 26.3746C0.854575 26.5437 0.936619 26.7015 1.04681 26.8389C1.26935 27.1165 1.59304 27.2943 1.94666 27.3332C2.30028 27.3721 2.65488 27.2689 2.93243 27.0464C3.20998 26.8238 3.38776 26.5001 3.42666 26.1465C3.71944 23.5401 4.96224 21.1329 6.91762 19.3849C8.873 17.6369 11.4039 16.6705 14.0267 16.6705C16.6495 16.6705 19.1803 17.6369 21.1357 19.3849C23.0911 21.1329 24.3339 23.5401 24.6267 26.1465C24.6629 26.4741 24.8192 26.7767 25.0655 26.9959C25.3117 27.215 25.6304 27.3352 25.96 27.3332H26.1067C26.4562 27.293 26.7756 27.1162 26.9954 26.8415C27.2152 26.5668 27.3175 26.2163 27.28 25.8665C27.0127 23.4614 26.0958 21.1745 24.6278 19.2508C23.1598 17.3271 21.1959 15.8391 18.9467 14.9465V14.9465ZM14 13.9998C12.9452 13.9998 11.914 13.687 11.037 13.101C10.1599 12.515 9.47631 11.682 9.07264 10.7075C8.66897 9.73295 8.56335 8.66059 8.76914 7.62603C8.97493 6.59146 9.48288 5.64115 10.2288 4.89527C10.9746 4.14939 11.9249 3.64144 12.9595 3.43565C13.9941 3.22986 15.0664 3.33548 16.041 3.73915C17.0155 4.14282 17.8485 4.8264 18.4345 5.70347C19.0205 6.58053 19.3333 7.61167 19.3333 8.66651C19.3333 10.081 18.7714 11.4376 17.7712 12.4377C16.771 13.4379 15.4145 13.9998 14 13.9998Z" fill="#424242"/>
</svg>
