<svg width="91" height="91" viewBox="0 0 91 91" fill="none" xmlns="http://www.w3.org/2000/svg">
<path d="M57.6267 31.1881L38.5005 50.3589L31.1442 43.0027C30.7445 42.536 30.2527 42.1569 29.6996 41.8893C29.1464 41.6217 28.544 41.4713 27.93 41.4476C27.316 41.4239 26.7037 41.5274 26.1316 41.7515C25.5595 41.9757 25.0399 42.3156 24.6054 42.7501C24.1709 43.1846 23.8309 43.7042 23.6068 44.2763C23.3826 44.8484 23.2792 45.4607 23.3029 46.0747C23.3266 46.6887 23.477 47.2912 23.7446 47.8443C24.0122 48.3974 24.3912 48.8893 24.858 49.2889L35.335 59.8106C35.7516 60.2238 36.2457 60.5507 36.7889 60.7726C37.3321 60.9944 37.9137 61.1069 38.5005 61.1035C39.6701 61.0986 40.7909 60.6343 41.6213 59.8106L63.9129 37.5189C64.3308 37.1045 64.6625 36.6114 64.8888 36.0681C65.1152 35.5248 65.2317 34.9421 65.2317 34.3535C65.2317 33.765 65.1152 33.1822 64.8888 32.6389C64.6625 32.0957 64.3308 31.6026 63.9129 31.1881C63.0776 30.3577 61.9477 29.8916 60.7698 29.8916C59.592 29.8916 58.462 30.3577 57.6267 31.1881ZM45.5 0.916016C36.6823 0.916016 28.0626 3.53078 20.7309 8.42966C13.3992 13.3285 7.68482 20.2915 4.31041 28.438C0.936004 36.5846 0.0531057 45.5488 1.77336 54.1971C3.49362 62.8454 7.73977 70.7894 13.9749 77.0245C20.21 83.2596 28.1539 87.5058 36.8023 89.226C45.4506 90.9463 54.4148 90.0634 62.5613 86.689C70.7079 83.3146 77.6708 77.6002 82.5697 70.2685C87.4686 62.9368 90.0834 54.3171 90.0834 45.4994C90.0834 39.6446 88.9302 33.8471 86.6897 28.438C84.4491 23.0289 81.1652 18.1141 77.0252 13.9742C72.8853 9.83423 67.9704 6.55024 62.5613 4.30972C57.1522 2.0692 51.3548 0.916016 45.5 0.916016ZM45.5 81.166C38.4458 81.166 31.5501 79.0742 25.6847 75.1551C19.8193 71.236 15.2479 65.6656 12.5483 59.1484C9.84881 52.6312 9.14249 45.4598 10.5187 38.5411C11.8949 31.6225 15.2918 25.2673 20.2799 20.2792C25.268 15.2911 31.6232 11.8942 38.5418 10.518C45.4605 9.1418 52.6318 9.84812 59.1491 12.5476C65.6663 15.2472 71.2367 19.8187 75.1558 25.684C79.0749 31.5494 81.1667 38.4451 81.1667 45.4994C81.1667 54.9587 77.409 64.0307 70.7202 70.7195C64.0314 77.4083 54.9594 81.166 45.5 81.166Z" fill="#23C65B"/>
</svg>
