<svg width="99" height="91" viewBox="0 0 99 91" fill="none" xmlns="http://www.w3.org/2000/svg">
<path d="M49.4998 63.334C48.6181 63.334 47.7561 63.5955 47.0229 64.0853C46.2897 64.5752 45.7183 65.2715 45.3809 66.0862C45.0434 66.9008 44.9551 67.7973 45.1272 68.6621C45.2992 69.5269 45.7238 70.3213 46.3473 70.9448C46.9708 71.5683 47.7652 71.993 48.6301 72.165C49.4949 72.337 50.3913 72.2487 51.206 71.9113C52.0206 71.5738 52.7169 71.0024 53.2068 70.2692C53.6967 69.5361 53.9582 68.6741 53.9582 67.7923C53.9582 66.6099 53.4884 65.4759 52.6523 64.6398C51.8162 63.8037 50.6823 63.334 49.4998 63.334ZM97.0702 69.8877L61.1807 7.47106C60.0206 5.39131 58.3264 3.65899 56.2729 2.45306C54.2194 1.24713 51.8812 0.611328 49.4998 0.611328C47.1184 0.611328 44.7802 1.24713 42.7268 2.45306C40.6733 3.65899 38.979 5.39131 37.819 7.47106L2.15233 69.8877C0.952133 71.9119 0.307221 74.2169 0.282708 76.57C0.258196 78.9231 0.854951 81.241 2.01273 83.2897C3.1705 85.3384 4.84831 87.0454 6.87676 88.2383C8.90521 89.4313 11.2125 90.0679 13.5657 90.084H85.434C87.8061 90.1074 90.1417 89.4994 92.2013 88.3226C94.261 87.1457 95.9706 85.4422 97.1549 83.3868C98.3391 81.3313 98.9554 78.9979 98.9405 76.6258C98.9257 74.2536 98.2802 71.9281 97.0702 69.8877ZM89.3573 78.8044C88.9665 79.4997 88.3964 80.0774 87.7063 80.4773C87.0163 80.8772 86.2315 81.0847 85.434 81.0781H13.5657C12.7681 81.0847 11.9834 80.8772 11.2933 80.4773C10.6033 80.0774 10.0331 79.4997 9.64233 78.8044C9.25103 78.1266 9.04503 77.3578 9.04503 76.5752C9.04503 75.7926 9.25103 75.0238 9.64233 74.3461L45.309 11.9294C45.6831 11.1991 46.2515 10.5862 46.9516 10.1583C47.6517 9.73033 48.4564 9.50388 49.2769 9.50388C50.0975 9.50388 50.9021 9.73033 51.6022 10.1583C52.3023 10.5862 52.8707 11.1991 53.2448 11.9294L89.1344 74.3461C89.5768 75.0141 89.8309 75.789 89.8701 76.5892C89.9094 77.3895 89.7322 78.1855 89.3573 78.8936V78.8044ZM49.4998 27.6673C48.3174 27.6673 47.1834 28.137 46.3473 28.9731C45.5112 29.8092 45.0415 30.9432 45.0415 32.1256V49.959C45.0415 51.1414 45.5112 52.2754 46.3473 53.1115C47.1834 53.9476 48.3174 54.4173 49.4998 54.4173C50.6823 54.4173 51.8162 53.9476 52.6523 53.1115C53.4884 52.2754 53.9582 51.1414 53.9582 49.959V32.1256C53.9582 30.9432 53.4884 29.8092 52.6523 28.9731C51.8162 28.137 50.6823 27.6673 49.4998 27.6673Z" fill="#FF5348"/>
</svg>
