<svg width="61" height="61" viewBox="0 0 61 61" fill="none" xmlns="http://www.w3.org/2000/svg">
<rect width="61" height="61" rx="14" fill="#FF5348"/>
<path d="M34.2013 33L29.6653 24.9884H27.7213V33H23.5977V12.4407H31.3148C32.9053 12.4407 34.2603 12.7255 35.3795 13.2949C36.4988 13.8447 37.3333 14.6007 37.8832 15.5629C38.4526 16.5055 38.7373 17.5658 38.7373 18.744C38.7373 20.0989 38.3446 21.3262 37.5592 22.4258C36.7737 23.5058 35.6053 24.252 34.0541 24.6644L38.973 33H34.2013ZM27.7213 21.8956H31.1675C32.2868 21.8956 33.1213 21.6305 33.6712 21.1004C34.221 20.5505 34.4959 19.7945 34.4959 18.8324C34.4959 17.8898 34.221 17.1633 33.6712 16.6527C33.1213 16.1225 32.2868 15.8575 31.1675 15.8575H27.7213V21.8956ZM22.6586 45.2709C22.6586 45.5982 22.6368 45.8927 22.5932 46.1545H15.9659C16.0205 46.8091 16.2495 47.3218 16.6532 47.6927C17.0568 48.0636 17.5532 48.2491 18.1423 48.2491C18.9932 48.2491 19.5986 47.8836 19.9586 47.1527H22.4295C22.1677 48.0255 21.6659 48.7455 20.9241 49.3127C20.1823 49.8691 19.2714 50.1473 18.1914 50.1473C17.3186 50.1473 16.5332 49.9564 15.835 49.5745C15.1477 49.1818 14.6077 48.6309 14.215 47.9218C13.8332 47.2127 13.6423 46.3945 13.6423 45.4673C13.6423 44.5291 13.8332 43.7055 14.215 42.9964C14.5968 42.2873 15.1314 41.7418 15.8186 41.36C16.5059 40.9782 17.2968 40.7873 18.1914 40.7873C19.0532 40.7873 19.8223 40.9727 20.4986 41.3436C21.1859 41.7145 21.715 42.2436 22.0859 42.9309C22.4677 43.6073 22.6586 44.3873 22.6586 45.2709ZM20.2859 44.6164C20.275 44.0273 20.0623 43.5582 19.6477 43.2091C19.2332 42.8491 18.7259 42.6691 18.1259 42.6691C17.5586 42.6691 17.0786 42.8436 16.6859 43.1927C16.3041 43.5309 16.0695 44.0055 15.9823 44.6164H20.2859ZM27.7999 50.1473C27.0581 50.1473 26.3926 50.0164 25.8035 49.7545C25.2144 49.4818 24.7453 49.1164 24.3962 48.6582C24.0581 48.2 23.8726 47.6927 23.8399 47.1364H26.1472C26.1908 47.4855 26.3599 47.7745 26.6544 48.0036C26.9599 48.2327 27.3362 48.3473 27.7835 48.3473C28.2199 48.3473 28.5581 48.26 28.7981 48.0855C29.049 47.9109 29.1744 47.6873 29.1744 47.4145C29.1744 47.12 29.0217 46.9018 28.7162 46.76C28.4217 46.6073 27.9472 46.4436 27.2926 46.2691C26.6162 46.1055 26.0599 45.9364 25.6235 45.7618C25.1981 45.5873 24.8272 45.32 24.5108 44.96C24.2053 44.6 24.0526 44.1145 24.0526 43.5036C24.0526 43.0018 24.1944 42.5436 24.4781 42.1291C24.7726 41.7145 25.1872 41.3873 25.7217 41.1473C26.2672 40.9073 26.9053 40.7873 27.6362 40.7873C28.7162 40.7873 29.5781 41.06 30.2217 41.6055C30.8653 42.14 31.2199 42.8655 31.2853 43.7818H29.0926C29.0599 43.4218 28.9072 43.1382 28.6344 42.9309C28.3726 42.7127 28.0181 42.6036 27.5708 42.6036C27.1562 42.6036 26.8344 42.68 26.6053 42.8327C26.3872 42.9855 26.2781 43.1982 26.2781 43.4709C26.2781 43.7764 26.4308 44.0109 26.7362 44.1745C27.0417 44.3273 27.5162 44.4855 28.1599 44.6491C28.8144 44.8127 29.3544 44.9818 29.7799 45.1564C30.2053 45.3309 30.5708 45.6036 30.8762 45.9745C31.1926 46.3345 31.3562 46.8145 31.3672 47.4145C31.3672 47.9382 31.2199 48.4073 30.9253 48.8218C30.6417 49.2364 30.2272 49.5636 29.6817 49.8036C29.1472 50.0327 28.5199 50.1473 27.7999 50.1473ZM35.915 42.8164V47.2018C35.915 47.5073 35.9859 47.7309 36.1277 47.8727C36.2804 48.0036 36.5313 48.0691 36.8804 48.0691H37.9441V50H36.5041C34.5732 50 33.6077 49.0618 33.6077 47.1855V42.8164H32.5277V40.9345H33.6077V38.6927H35.915V40.9345H37.9441V42.8164H35.915ZM43.6173 50.1473C42.7445 50.1473 41.9591 49.9564 41.2609 49.5745C40.5627 49.1818 40.0118 48.6309 39.6082 47.9218C39.2154 47.2127 39.0191 46.3945 39.0191 45.4673C39.0191 44.54 39.2209 43.7218 39.6245 43.0127C40.0391 42.3036 40.6009 41.7582 41.31 41.3764C42.0191 40.9836 42.81 40.7873 43.6827 40.7873C44.5554 40.7873 45.3463 40.9836 46.0554 41.3764C46.7645 41.7582 47.3209 42.3036 47.7245 43.0127C48.1391 43.7218 48.3463 44.54 48.3463 45.4673C48.3463 46.3945 48.1336 47.2127 47.7082 47.9218C47.2936 48.6309 46.7263 49.1818 46.0063 49.5745C45.2973 49.9564 44.5009 50.1473 43.6173 50.1473ZM43.6173 48.1509C44.0318 48.1509 44.4191 48.0527 44.7791 47.8564C45.15 47.6491 45.4445 47.3436 45.6627 46.94C45.8809 46.5364 45.99 46.0455 45.99 45.4673C45.99 44.6055 45.7609 43.9455 45.3027 43.4873C44.8554 43.0182 44.3045 42.7836 43.65 42.7836C42.9954 42.7836 42.4445 43.0182 41.9973 43.4873C41.5609 43.9455 41.3427 44.6055 41.3427 45.4673C41.3427 46.3291 41.5554 46.9945 41.9809 47.4636C42.4173 47.9218 42.9627 48.1509 43.6173 48.1509Z" fill="white"/>
<circle cx="8" cy="16" r="2" fill="white"/>
<circle cx="11.5" cy="21.5" r="3.5" fill="white"/>
</svg>
